<svg width="472" height="77" viewBox="0 0 472 77" fill="none" xmlns="http://www.w3.org/2000/svg">
<path d="M35.7 4.76C37.66 4.76 39.1933 5.36 40.3 6.56C41.4067 7.74667 41.96 9.46 41.96 11.7C41.96 13.2867 41.66 14.6467 41.06 15.78C40.4733 16.9133 39.64 17.7733 38.56 18.36C37.48 18.9467 36.2333 19.24 34.82 19.24C34.0733 19.24 33.36 19.16 32.68 19C32 18.8267 31.42 18.5867 30.94 18.28L32.14 15.9C32.82 16.3667 33.6933 16.6 34.76 16.6C35.9467 16.6 36.8867 16.2533 37.58 15.56C38.2733 14.8533 38.6467 13.84 38.7 12.52C37.86 13.36 36.7 13.78 35.22 13.78C34.3267 13.78 33.5133 13.6 32.78 13.24C32.0467 12.88 31.4667 12.3733 31.04 11.72C30.6133 11.0533 30.4 10.2867 30.4 9.42C30.4 8.48667 30.6333 7.66667 31.1 6.96C31.5667 6.25333 32.2 5.71333 33 5.34C33.8133 4.95333 34.7133 4.76 35.7 4.76ZM35.94 11.36C36.6467 11.36 37.22 11.1667 37.66 10.78C38.1133 10.38 38.34 9.87333 38.34 9.26C38.34 8.64667 38.12 8.14667 37.68 7.76C37.2533 7.37333 36.66 7.18 35.9 7.18C35.2067 7.18 34.64 7.36667 34.2 7.74C33.7733 8.11333 33.56 8.62 33.56 9.26C33.56 9.9 33.7733 10.4133 34.2 10.8C34.64 11.1733 35.22 11.36 35.94 11.36ZM53.0944 11.64C53.7877 11.9867 54.3144 12.44 54.6744 13C55.0477 13.56 55.2344 14.2067 55.2344 14.94C55.2344 15.8067 54.9877 16.5667 54.4944 17.22C54.001 17.86 53.3077 18.36 52.4144 18.72C51.521 19.0667 50.4877 19.24 49.3144 19.24C48.141 19.24 47.1077 19.0667 46.2144 18.72C45.3344 18.36 44.6477 17.86 44.1544 17.22C43.6744 16.5667 43.4344 15.8067 43.4344 14.94C43.4344 14.2067 43.6144 13.56 43.9744 13C44.3477 12.44 44.8744 11.9867 45.5544 11.64C45.0344 11.32 44.6344 10.92 44.3544 10.44C44.0744 9.94667 43.9344 9.38667 43.9344 8.76C43.9344 7.94667 44.161 7.24 44.6144 6.64C45.0677 6.04 45.701 5.58 46.5144 5.26C47.3277 4.92667 48.261 4.76 49.3144 4.76C50.381 4.76 51.321 4.92667 52.1344 5.26C52.961 5.58 53.601 6.04 54.0544 6.64C54.5077 7.24 54.7344 7.94667 54.7344 8.76C54.7344 9.38667 54.5944 9.94667 54.3144 10.44C54.0344 10.92 53.6277 11.32 53.0944 11.64ZM49.3144 7.14C48.661 7.14 48.1344 7.3 47.7344 7.62C47.3477 7.92667 47.1544 8.35333 47.1544 8.9C47.1544 9.43333 47.3477 9.85333 47.7344 10.16C48.121 10.4667 48.6477 10.62 49.3144 10.62C49.981 10.62 50.5144 10.4667 50.9144 10.16C51.3144 9.85333 51.5144 9.43333 51.5144 8.9C51.5144 8.35333 51.3144 7.92667 50.9144 7.62C50.5144 7.3 49.981 7.14 49.3144 7.14ZM49.3144 16.86C50.1277 16.86 50.7677 16.68 51.2344 16.32C51.7144 15.9467 51.9544 15.4533 51.9544 14.84C51.9544 14.2267 51.7144 13.74 51.2344 13.38C50.7677 13.02 50.1277 12.84 49.3144 12.84C48.5144 12.84 47.881 13.02 47.4144 13.38C46.9477 13.74 46.7144 14.2267 46.7144 14.84C46.7144 15.4667 46.9477 15.96 47.4144 16.32C47.881 16.68 48.5144 16.86 49.3144 16.86ZM59.7622 12.56C58.7355 12.56 57.8955 12.2133 57.2422 11.52C56.6022 10.8133 56.2822 9.87333 56.2822 8.7C56.2822 7.52667 56.6022 6.59333 57.2422 5.9C57.8955 5.19333 58.7355 4.84 59.7622 4.84C60.7889 4.84 61.6222 5.19333 62.2622 5.9C62.9022 6.59333 63.2222 7.52667 63.2222 8.7C63.2222 9.87333 62.9022 10.8133 62.2622 11.52C61.6222 12.2133 60.7889 12.56 59.7622 12.56ZM68.1022 5H70.4822L60.9222 19H58.5422L68.1022 5ZM59.7622 10.92C60.2155 10.92 60.5689 10.7333 60.8222 10.36C61.0889 9.98667 61.2222 9.43333 61.2222 8.7C61.2222 7.96667 61.0889 7.41333 60.8222 7.04C60.5689 6.66667 60.2155 6.48 59.7622 6.48C59.3222 6.48 58.9689 6.67333 58.7022 7.06C58.4355 7.43333 58.3022 7.98 58.3022 8.7C58.3022 9.42 58.4355 9.97333 58.7022 10.36C58.9689 10.7333 59.3222 10.92 59.7622 10.92ZM69.2622 19.16C68.5955 19.16 67.9955 19.0067 67.4622 18.7C66.9422 18.38 66.5355 17.9267 66.2422 17.34C65.9489 16.7533 65.8022 16.0733 65.8022 15.3C65.8022 14.5267 65.9489 13.8467 66.2422 13.26C66.5355 12.6733 66.9422 12.2267 67.4622 11.92C67.9955 11.6 68.5955 11.44 69.2622 11.44C70.2889 11.44 71.1222 11.7933 71.7622 12.5C72.4155 13.1933 72.7422 14.1267 72.7422 15.3C72.7422 16.4733 72.4155 17.4133 71.7622 18.12C71.1222 18.8133 70.2889 19.16 69.2622 19.16ZM69.2622 17.52C69.7155 17.52 70.0689 17.3333 70.3222 16.96C70.5889 16.5733 70.7222 16.02 70.7222 15.3C70.7222 14.58 70.5889 14.0333 70.3222 13.66C70.0689 13.2733 69.7155 13.08 69.2622 13.08C68.8222 13.08 68.4689 13.2667 68.2022 13.64C67.9355 14.0133 67.8022 14.5667 67.8022 15.3C67.8022 16.0333 67.9355 16.5867 68.2022 16.96C68.4689 17.3333 68.8222 17.52 69.2622 17.52Z" fill="#0021CD"/>
<rect x="30" y="30" width="442" height="7" rx="3.5" fill="url(#paint0_radial)"/>
<g filter="url(#filter0_d)">
<rect x="30" y="30" width="405" height="7" rx="3.5" fill="url(#paint1_radial)"/>
</g>
<defs>
<filter id="filter0_d" x="0" y="10" width="465" height="67" filterUnits="userSpaceOnUse" color-interpolation-filters="sRGB">
<feFlood flood-opacity="0" result="BackgroundImageFix"/>
<feColorMatrix in="SourceAlpha" type="matrix" values="0 0 0 0 0 0 0 0 0 0 0 0 0 0 0 0 0 0 127 0" result="hardAlpha"/>
<feOffset dy="10"/>
<feGaussianBlur stdDeviation="15"/>
<feComposite in2="hardAlpha" operator="out"/>
<feColorMatrix type="matrix" values="0 0 0 0 0 0 0 0 0 0.128667 0 0 0 0 0.804167 0 0 0 0.25 0"/>
<feBlend mode="normal" in2="BackgroundImageFix" result="effect1_dropShadow"/>
<feBlend mode="normal" in="SourceGraphic" in2="effect1_dropShadow" result="shape"/>
</filter>
<radialGradient id="paint0_radial" cx="0" cy="0" r="1" gradientUnits="userSpaceOnUse" gradientTransform="translate(251 37) rotate(-90) scale(7 442)">
<stop stop-color="white"/>
<stop offset="1" stop-color="white"/>
</radialGradient>
<radialGradient id="paint1_radial" cx="0" cy="0" r="1" gradientUnits="userSpaceOnUse" gradientTransform="translate(232.5 37) rotate(-90) scale(7 405)">
<stop stop-color="#2B96EA"/>
<stop offset="1" stop-color="#0021CD"/>
</radialGradient>
</defs>
</svg>
