<svg width="101" height="100" viewBox="0 0 101 100" fill="none" xmlns="http://www.w3.org/2000/svg">
<path d="M50.8322 100C78.4464 100 100.832 77.6142 100.832 50C100.832 22.3858 78.4464 0 50.8322 0C23.2179 0 0.832153 22.3858 0.832153 50C0.832153 77.6142 23.2179 100 50.8322 100Z" fill="url(#paint0_linear)"/>
<path fill-rule="evenodd" clip-rule="evenodd" d="M23.465 49.4718C38.041 43.1213 47.7607 38.9346 52.6239 36.9118C66.5094 31.1364 69.3947 30.1331 71.2753 30.1C71.6889 30.0927 72.6138 30.1952 73.2128 30.6813C73.7187 31.0917 73.8578 31.6462 73.9244 32.0353C73.991 32.4245 74.074 33.311 74.008 34.0037C73.2556 41.9099 69.9997 61.0961 68.3433 69.9511C67.6424 73.698 66.2623 74.9543 64.9262 75.0773C62.0226 75.3445 59.8178 73.1584 57.0055 71.3149C52.6049 68.4302 50.1188 66.6345 45.8472 63.8196C40.9106 60.5665 44.1108 58.7785 46.9241 55.8565C47.6604 55.0917 60.4537 43.4553 60.7013 42.3996C60.7323 42.2676 60.761 41.7755 60.4687 41.5156C60.1763 41.2558 59.7448 41.3447 59.4334 41.4153C58.9921 41.5155 51.962 46.1621 38.3431 55.3552C36.3477 56.7255 34.5402 57.3931 32.9208 57.3581C31.1356 57.3195 27.7015 56.3487 25.1485 55.5188C22.0173 54.501 19.5286 53.9629 19.7453 52.2342C19.8582 51.3339 21.0981 50.4131 23.465 49.4718Z" fill="white"/>
<defs>
<linearGradient id="paint0_linear" x1="50.8322" y1="0" x2="50.8322" y2="99.2583" gradientUnits="userSpaceOnUse">
<stop stop-color="#2AABEE"/>
<stop offset="1" stop-color="#229ED9"/>
</linearGradient>
</defs>
</svg>
